<svg width="40" height="54" viewBox="0 0 40 54" fill="none" xmlns="http://www.w3.org/2000/svg">
<g clip-path="url(#clip0_105_78)">
<path d="M1.45837 9.97917C1.45837 4.46875 5.92712 0 11.4375 0H28.5625C34.073 0 38.5417 4.46875 38.5417 9.97917C38.5417 13.4687 36.75 16.5417 34.0313 18.3229C36.75 20.1042 38.5417 23.1771 38.5417 26.6667C38.5417 32.1771 34.073 36.6458 28.5625 36.6458H28.3438C25.7605 36.6458 23.4063 35.6667 21.6355 34.0521V43.25C21.6355 48.8333 17.0521 53.3333 11.4896 53.3333C5.98962 53.3333 1.45837 48.875 1.45837 43.3542C1.45837 39.8646 3.25004 36.7917 5.95837 35.0104C3.25004 33.2292 1.45837 30.1562 1.45837 26.6667C1.45837 23.1771 3.25004 20.1042 5.95837 18.3229C3.25004 16.5417 1.45837 13.4687 1.45837 9.97917ZM18.3646 19.9583H11.4375C7.72921 19.9583 4.72921 22.9583 4.72921 26.6667C4.72921 30.3542 7.70837 33.3542 11.3959 33.375C11.4063 33.375 11.4271 33.375 11.4375 33.375H18.3646V19.9583ZM21.6355 26.6667C21.6355 30.375 24.6355 33.375 28.3438 33.375H28.5625C32.2605 33.375 35.2709 30.375 35.2709 26.6667C35.2709 22.9583 32.2605 19.9583 28.5625 19.9583H28.3438C24.6355 19.9583 21.6355 22.9583 21.6355 26.6667ZM11.4375 36.6458C11.4271 36.6458 11.4063 36.6458 11.3959 36.6458C7.70837 36.6667 4.72921 39.6667 4.72921 43.3542C4.72921 47.0521 7.77087 50.0625 11.4896 50.0625C15.2709 50.0625 18.3646 47 18.3646 43.25V36.6458H11.4375ZM11.4375 3.27083C7.72921 3.27083 4.72921 6.27083 4.72921 9.97917C4.72921 13.6875 7.72921 16.6875 11.4375 16.6875H18.3646V3.27083H11.4375ZM21.6355 16.6875H28.5625C32.2605 16.6875 35.2709 13.6875 35.2709 9.97917C35.2709 6.27083 32.2605 3.27083 28.5625 3.27083H21.6355V16.6875Z" fill="black"/>
</g>
<defs>
<clipPath id="clip0_105_78">
<rect width="40" height="53.3333" fill="white"/>
</clipPath>
</defs>
</svg>
