<svg width="57" height="55" viewBox="0 0 57 55" fill="none" xmlns="http://www.w3.org/2000/svg">
<path d="M0 3.4375V51.5625H57V3.4375H0ZM31.0192 40.9707C31.0192 45.6543 27.7621 47.792 23.0163 47.792C18.7286 47.792 16.2475 45.9229 14.9752 43.6562L19.3393 41.4326C20.179 42.6895 20.9424 43.7529 22.7873 43.7529C24.5431 43.7529 25.6627 43.1729 25.6627 40.9062V25.5342H31.0192V40.9707ZM43.6915 47.792C38.7167 47.792 35.4978 45.7939 33.9328 43.1729L38.2969 41.0459C39.442 42.625 40.9433 43.7959 43.577 43.7959C45.7909 43.7959 47.2159 42.8613 47.2159 41.5615C47.2159 40.0146 45.7654 39.4668 43.3098 38.5537L41.9739 38.0703C38.106 36.6846 35.5487 34.9336 35.5487 31.249C35.5487 27.8545 38.615 25.2764 43.3862 25.2764C46.796 25.2764 49.2388 26.2754 50.9946 28.8965L46.8214 31.1523C45.9054 29.7666 44.9129 29.2188 43.3734 29.2188C41.8085 29.2188 40.8161 30.0566 40.8161 31.1523C40.8161 32.5059 41.8085 33.0537 44.1114 33.9023L45.4473 34.3857C50.0022 36.0293 52.5596 37.7158 52.5596 41.4971C52.5596 45.5576 48.7681 47.792 43.6915 47.792Z" fill="#F7DE1F"/>
</svg>
