<svg width="76" height="39" viewBox="0 0 76 39" fill="none" xmlns="http://www.w3.org/2000/svg">
<path d="M37.9999 2.58849C58.1948 2.58849 73.7238 10.6192 73.7238 19.4397C73.7238 28.2601 58.183 36.2909 37.9999 36.2909C17.8051 36.2909 2.27605 28.2601 2.27605 19.4397C2.27605 10.6192 17.8169 2.58849 37.9999 2.58849ZM37.9999 0.719849C17.1806 0.719849 0.296631 9.09539 0.296631 19.4397C0.296631 29.784 17.1806 38.1595 37.9999 38.1595C58.8192 38.1595 75.7032 29.784 75.7032 19.4397C75.7032 9.09539 58.8192 0.719849 37.9999 0.719849ZM26.0056 17.9381C25.0748 22.4429 21.7875 21.9757 17.7462 21.9757L19.3604 14.1229C23.8376 14.1229 26.8775 13.6669 26.0056 17.9381ZM11.7726 29.9286H16.0967L17.1217 24.9455C21.9642 24.9455 24.9687 25.2792 27.7493 22.821C30.8245 20.1515 31.6257 15.4021 29.4342 13.0218C28.2913 11.776 26.4533 11.1642 23.9555 11.1642H15.6254L11.7726 29.9286ZM33.6523 6.17007H37.9528L36.9277 11.1531C40.6392 11.1531 44.0796 10.8973 45.7409 12.3433C47.4847 13.856 46.6481 15.7914 44.763 24.9233H40.4035C42.218 16.0917 42.5597 15.3576 41.8999 14.6902C41.2636 14.0451 39.8144 14.1785 36.3151 14.1785L34.1 24.9233H29.7995L33.6523 6.17007ZM59.7971 17.9381C58.8546 22.5096 55.473 21.9757 51.5378 21.9757L53.1519 14.1229C57.6528 14.1229 60.669 13.6669 59.7971 17.9381ZM45.5642 29.9286H49.9L50.9251 24.9455C56.015 24.9455 58.831 25.2236 61.5527 22.821C64.6279 20.1515 65.4291 15.4021 63.2376 13.0218C62.0947 11.776 60.2567 11.1642 57.7588 11.1642H49.4287L45.5642 29.9286Z" fill="#777BB4"/>
</svg>
